ISO-10303-21;
HEADER;
FILE_DESCRIPTION(('FreeCAD Model'),'2;1');
FILE_NAME('Open CASCADE Shape Model','2025-07-23T16:28:21',('FreeCAD'),(
    'FreeCAD'),'Open CASCADE STEP processor 7.8','FreeCAD','Unknown');
FILE_SCHEMA(('AUTOMOTIVE_DESIGN { 1 0 10303 214 1 1 1 1 }'));
ENDSEC;
DATA;
#1 = APPLICATION_PROTOCOL_DEFINITION('international standard',
  'automotive_design',2000,#2);
#2 = APPLICATION_CONTEXT(
  'core data for automotive mechanical design processes');
#3 = SHAPE_DEFINITION_REPRESENTATION(#4,#10);
#4 = PRODUCT_DEFINITION_SHAPE('','',#5);
#5 = PRODUCT_DEFINITION('design','',#6,#9);
#6 = PRODUCT_DEFINITION_FORMATION('','',#7);
#7 = PRODUCT('Open CASCADE STEP translator 7.8 1',
  'Open CASCADE STEP translator 7.8 1','',(#8));
#8 = PRODUCT_CONTEXT('',#2,'mechanical');
#9 = PRODUCT_DEFINITION_CONTEXT('part definition',#2,'design');
#10 = ADVANCED_BREP_SHAPE_REPRESENTATION('',(#11,#15),#256);
#11 = AXIS2_PLACEMENT_3D('',#12,#13,#14);
#12 = CARTESIAN_POINT('',(0.,0.,0.));
#13 = DIRECTION('',(0.,0.,1.));
#14 = DIRECTION('',(1.,0.,-0.));
#15 = MANIFOLD_SOLID_BREP('',#16);
#16 = CLOSED_SHELL('',(#17,#47,#82,#134,#148,#179,#203,#227,#244));
#17 = ADVANCED_FACE('',(#18),#38,.T.);
#18 = FACE_BOUND('',#19,.T.);
#19 = EDGE_LOOP('',(#20,#31));
#20 = ORIENTED_EDGE('',*,*,#21,.T.);
#21 = EDGE_CURVE('',#22,#24,#26,.T.);
#22 = VERTEX_POINT('',#23);
#23 = CARTESIAN_POINT('',(858.07996339321,-974.5769319786,
    244.66232427176));
#24 = VERTEX_POINT('',#25);
#25 = CARTESIAN_POINT('',(855.38018962395,-966.8259825031,
    244.65335392238));
#26 = PARABOLA('',#27,2.336748);
#27 = AXIS2_PLACEMENT_3D('',#28,#29,#30);
#28 = CARTESIAN_POINT('',(858.4315997932,-970.1088025768,244.64763051481
    ));
#29 = DIRECTION('',(-4.990964879978E-03,-2.895732475467E-03,
    -0.999983352363));
#30 = DIRECTION('',(-0.944340256791,-0.328921539098,5.665732160093E-03)
  );
#31 = ORIENTED_EDGE('',*,*,#32,.F.);
#32 = EDGE_CURVE('',#22,#24,#33,.T.);
#33 = PARABOLA('',#34,2.336748);
#34 = AXIS2_PLACEMENT_3D('',#35,#36,#37);
#35 = CARTESIAN_POINT('',(856.73906928729,-970.6962396763,
    246.45962076003));
#36 = DIRECTION('',(0.944340256791,0.328921539098,-5.665732160093E-03));
#37 = DIRECTION('',(-4.990964879978E-03,-2.895732475467E-03,
    -0.999983352363));
#38 = SURFACE_OF_REVOLUTION('',#39,#44);
#39 = PARABOLA('',#40,2.336748);
#40 = AXIS2_PLACEMENT_3D('',#41,#42,#43);
#41 = CARTESIAN_POINT('',(856.73906928729,-970.6962396763,
    246.45962076003));
#42 = DIRECTION('',(0.944340256791,0.328921539098,-5.665732160093E-03));
#43 = DIRECTION('',(-4.990964879978E-03,-2.895732475467E-03,
    -0.999983352363));
#44 = AXIS1_PLACEMENT('',#45,#46);
#45 = CARTESIAN_POINT('',(855.38018962395,-966.8259825031,
    244.65335392238));
#46 = DIRECTION('',(-0.328932469776,0.944352813228,-1.092920899576E-03)
  );
#47 = ADVANCED_FACE('',(#48),#74,.T.);
#48 = FACE_BOUND('',#49,.T.);
#49 = EDGE_LOOP('',(#50,#58,#59,#67));
#50 = ORIENTED_EDGE('',*,*,#51,.T.);
#51 = EDGE_CURVE('',#52,#22,#54,.T.);
#52 = VERTEX_POINT('',#53);
#53 = CARTESIAN_POINT('',(761.92665673312,-1.008067925705E+03,
    245.23921261039));
#54 = LINE('',#55,#56);
#55 = CARTESIAN_POINT('',(761.92665673312,-1.008067925705E+03,
    245.23921261039));
#56 = VECTOR('',#57,1.);
#57 = DIRECTION('',(0.944340256791,0.328921539098,-5.665732160093E-03));
#58 = ORIENTED_EDGE('',*,*,#32,.T.);
#59 = ORIENTED_EDGE('',*,*,#60,.F.);
#60 = EDGE_CURVE('',#61,#24,#63,.T.);
#61 = VERTEX_POINT('',#62);
#62 = CARTESIAN_POINT('',(759.22688296386,-1.00031697623E+03,
    245.23024226101));
#63 = LINE('',#64,#65);
#64 = CARTESIAN_POINT('',(759.22688296386,-1.00031697623E+03,
    245.23024226101));
#65 = VECTOR('',#66,1.);
#66 = DIRECTION('',(0.944340256791,0.328921539098,-5.665732160093E-03));
#67 = ORIENTED_EDGE('',*,*,#68,.F.);
#68 = EDGE_CURVE('',#52,#61,#69,.T.);
#69 = PARABOLA('',#70,2.336748);
#70 = AXIS2_PLACEMENT_3D('',#71,#72,#73);
#71 = CARTESIAN_POINT('',(760.5857626272,-1.004187233403E+03,
    247.03650909866));
#72 = DIRECTION('',(0.944340256791,0.328921539098,-5.665732160093E-03));
#73 = DIRECTION('',(-4.990964879978E-03,-2.895732475467E-03,
    -0.999983352363));
#74 = SURFACE_OF_LINEAR_EXTRUSION('',#75,#80);
#75 = PARABOLA('',#76,2.336748);
#76 = AXIS2_PLACEMENT_3D('',#77,#78,#79);
#77 = CARTESIAN_POINT('',(760.5857626272,-1.004187233403E+03,
    247.03650909866));
#78 = DIRECTION('',(0.944340256791,0.328921539098,-5.665732160093E-03));
#79 = DIRECTION('',(-4.990964879978E-03,-2.895732475467E-03,
    -0.999983352363));
#80 = VECTOR('',#81,1.);
#81 = DIRECTION('',(-0.944340256791,-0.328921539098,5.665732160093E-03)
  );
#82 = ADVANCED_FACE('',(#83,#117),#129,.T.);
#83 = FACE_BOUND('',#84,.T.);
#84 = EDGE_LOOP('',(#85,#95,#103,#111));
#85 = ORIENTED_EDGE('',*,*,#86,.F.);
#86 = EDGE_CURVE('',#87,#89,#91,.T.);
#87 = VERTEX_POINT('',#88);
#88 = CARTESIAN_POINT('',(877.3913400544,-999.6183009844,244.63845457714
    ));
#89 = VERTEX_POINT('',#90);
#90 = CARTESIAN_POINT('',(762.35122825848,-1.039687725493E+03,
    245.32865755898));
#91 = LINE('',#92,#93);
#92 = CARTESIAN_POINT('',(877.3913400544,-999.6183009844,244.63845457714
    ));
#93 = VECTOR('',#94,1.);
#94 = DIRECTION('',(-0.944340256791,-0.328921539098,5.665732160093E-03)
  );
#95 = ORIENTED_EDGE('',*,*,#96,.F.);
#96 = EDGE_CURVE('',#97,#87,#99,.T.);
#97 = VERTEX_POINT('',#98);
#98 = CARTESIAN_POINT('',(854.95561809858,-935.2061827153,
    244.56390897379));
#99 = LINE('',#100,#101);
#100 = CARTESIAN_POINT('',(854.95561809858,-935.2061827153,
    244.56390897379));
#101 = VECTOR('',#102,1.);
#102 = DIRECTION('',(0.328932469776,-0.944352813228,1.092920899576E-03)
  );
#103 = ORIENTED_EDGE('',*,*,#104,.F.);
#104 = EDGE_CURVE('',#105,#97,#107,.T.);
#105 = VERTEX_POINT('',#106);
#106 = CARTESIAN_POINT('',(739.91550630267,-975.2756072238,
    245.25411195562));
#107 = LINE('',#108,#109);
#108 = CARTESIAN_POINT('',(739.91550630267,-975.2756072238,
    245.25411195562));
#109 = VECTOR('',#110,1.);
#110 = DIRECTION('',(0.944340256791,0.328921539098,-5.665732160093E-03)
  );
#111 = ORIENTED_EDGE('',*,*,#112,.F.);
#112 = EDGE_CURVE('',#89,#105,#113,.T.);
#113 = LINE('',#114,#115);
#114 = CARTESIAN_POINT('',(762.35122825848,-1.039687725493E+03,
    245.32865755898));
#115 = VECTOR('',#116,1.);
#116 = DIRECTION('',(-0.328932469776,0.944352813228,-1.092920899576E-03)
  );
#117 = FACE_BOUND('',#118,.T.);
#118 = EDGE_LOOP('',(#119,#120,#121,#128));
#119 = ORIENTED_EDGE('',*,*,#21,.F.);
#120 = ORIENTED_EDGE('',*,*,#51,.F.);
#121 = ORIENTED_EDGE('',*,*,#122,.T.);
#122 = EDGE_CURVE('',#52,#61,#123,.T.);
#123 = PARABOLA('',#124,2.336748);
#124 = AXIS2_PLACEMENT_3D('',#125,#126,#127);
#125 = CARTESIAN_POINT('',(758.87524656386,-1.004785105631E+03,
    245.24493601796));
#126 = DIRECTION('',(4.990964879978E-03,2.895732475467E-03,
    0.999983352363));
#127 = DIRECTION('',(0.944340256791,0.328921539098,-5.665732160093E-03)
  );
#128 = ORIENTED_EDGE('',*,*,#60,.T.);
#129 = PLANE('',#130);
#130 = AXIS2_PLACEMENT_3D('',#131,#132,#133);
#131 = CARTESIAN_POINT('',(808.65342317853,-987.4469541041,
    244.94628326638));
#132 = DIRECTION('',(4.990964879978E-03,2.895732475467E-03,
    0.999983352363));
#133 = DIRECTION('',(-0.328932469776,0.944352813228,-1.092920899576E-03)
  );
#134 = ADVANCED_FACE('',(#135),#139,.F.);
#135 = FACE_BOUND('',#136,.F.);
#136 = EDGE_LOOP('',(#137,#138));
#137 = ORIENTED_EDGE('',*,*,#122,.T.);
#138 = ORIENTED_EDGE('',*,*,#68,.F.);
#139 = SURFACE_OF_REVOLUTION('',#140,#145);
#140 = PARABOLA('',#141,2.336748);
#141 = AXIS2_PLACEMENT_3D('',#142,#143,#144);
#142 = CARTESIAN_POINT('',(760.5857626272,-1.004187233403E+03,
    247.03650909866));
#143 = DIRECTION('',(0.944340256791,0.328921539098,-5.665732160093E-03)
  );
#144 = DIRECTION('',(-4.990964879978E-03,-2.895732475467E-03,
    -0.999983352363));
#145 = AXIS1_PLACEMENT('',#146,#147);
#146 = CARTESIAN_POINT('',(759.22688296386,-1.00031697623E+03,
    245.23024226101));
#147 = DIRECTION('',(0.328932469776,-0.944352813228,1.092920899576E-03)
  );
#148 = ADVANCED_FACE('',(#149),#174,.F.);
#149 = FACE_BOUND('',#150,.F.);
#150 = EDGE_LOOP('',(#151,#159,#167,#173));
#151 = ORIENTED_EDGE('',*,*,#152,.T.);
#152 = EDGE_CURVE('',#87,#153,#155,.T.);
#153 = VERTEX_POINT('',#154);
#154 = CARTESIAN_POINT('',(877.38634908952,-999.6211967169,
    243.63847122478));
#155 = LINE('',#156,#157);
#156 = CARTESIAN_POINT('',(877.3913400544,-999.6183009844,
    244.63845457714));
#157 = VECTOR('',#158,1.);
#158 = DIRECTION('',(-4.990964879978E-03,-2.895732475467E-03,
    -0.999983352363));
#159 = ORIENTED_EDGE('',*,*,#160,.T.);
#160 = EDGE_CURVE('',#153,#161,#163,.T.);
#161 = VERTEX_POINT('',#162);
#162 = CARTESIAN_POINT('',(762.3462372936,-1.039690621225E+03,
    244.32867420662));
#163 = LINE('',#164,#165);
#164 = CARTESIAN_POINT('',(877.38634908952,-999.6211967169,
    243.63847122478));
#165 = VECTOR('',#166,1.);
#166 = DIRECTION('',(-0.944340256791,-0.328921539098,5.665732160093E-03)
  );
#167 = ORIENTED_EDGE('',*,*,#168,.F.);
#168 = EDGE_CURVE('',#89,#161,#169,.T.);
#169 = LINE('',#170,#171);
#170 = CARTESIAN_POINT('',(762.35122825848,-1.039687725493E+03,
    245.32865755898));
#171 = VECTOR('',#172,1.);
#172 = DIRECTION('',(-4.990964879978E-03,-2.895732475467E-03,
    -0.999983352363));
#173 = ORIENTED_EDGE('',*,*,#86,.F.);
#174 = PLANE('',#175);
#175 = AXIS2_PLACEMENT_3D('',#176,#177,#178);
#176 = CARTESIAN_POINT('',(877.3913400544,-999.6183009844,
    244.63845457714));
#177 = DIRECTION('',(-0.328932469776,0.944352813228,-1.092920899576E-03)
  );
#178 = DIRECTION('',(-0.944340256791,-0.328921539098,5.665732160093E-03)
  );
#179 = ADVANCED_FACE('',(#180),#198,.F.);
#180 = FACE_BOUND('',#181,.F.);
#181 = EDGE_LOOP('',(#182,#190,#196,#197));
#182 = ORIENTED_EDGE('',*,*,#183,.T.);
#183 = EDGE_CURVE('',#97,#184,#186,.T.);
#184 = VERTEX_POINT('',#185);
#185 = CARTESIAN_POINT('',(854.9506271337,-935.2090784477,
    243.56392562143));
#186 = LINE('',#187,#188);
#187 = CARTESIAN_POINT('',(854.95561809858,-935.2061827153,
    244.56390897379));
#188 = VECTOR('',#189,1.);
#189 = DIRECTION('',(-4.990964879978E-03,-2.895732475467E-03,
    -0.999983352363));
#190 = ORIENTED_EDGE('',*,*,#191,.T.);
#191 = EDGE_CURVE('',#184,#153,#192,.T.);
#192 = LINE('',#193,#194);
#193 = CARTESIAN_POINT('',(854.9506271337,-935.2090784477,
    243.56392562143));
#194 = VECTOR('',#195,1.);
#195 = DIRECTION('',(0.328932469776,-0.944352813228,1.092920899576E-03)
  );
#196 = ORIENTED_EDGE('',*,*,#152,.F.);
#197 = ORIENTED_EDGE('',*,*,#96,.F.);
#198 = PLANE('',#199);
#199 = AXIS2_PLACEMENT_3D('',#200,#201,#202);
#200 = CARTESIAN_POINT('',(854.95561809858,-935.2061827153,
    244.56390897379));
#201 = DIRECTION('',(-0.944340256791,-0.328921539098,5.665732160093E-03)
  );
#202 = DIRECTION('',(0.328932469776,-0.944352813228,1.092920899576E-03)
  );
#203 = ADVANCED_FACE('',(#204),#222,.F.);
#204 = FACE_BOUND('',#205,.F.);
#205 = EDGE_LOOP('',(#206,#207,#215,#221));
#206 = ORIENTED_EDGE('',*,*,#168,.T.);
#207 = ORIENTED_EDGE('',*,*,#208,.T.);
#208 = EDGE_CURVE('',#161,#209,#211,.T.);
#209 = VERTEX_POINT('',#210);
#210 = CARTESIAN_POINT('',(739.91051533779,-975.2785029563,
    244.25412860326));
#211 = LINE('',#212,#213);
#212 = CARTESIAN_POINT('',(762.3462372936,-1.039690621225E+03,
    244.32867420662));
#213 = VECTOR('',#214,1.);
#214 = DIRECTION('',(-0.328932469776,0.944352813228,-1.092920899576E-03)
  );
#215 = ORIENTED_EDGE('',*,*,#216,.F.);
#216 = EDGE_CURVE('',#105,#209,#217,.T.);
#217 = LINE('',#218,#219);
#218 = CARTESIAN_POINT('',(739.91550630267,-975.2756072238,
    245.25411195562));
#219 = VECTOR('',#220,1.);
#220 = DIRECTION('',(-4.990964879978E-03,-2.895732475467E-03,
    -0.999983352363));
#221 = ORIENTED_EDGE('',*,*,#112,.F.);
#222 = PLANE('',#223);
#223 = AXIS2_PLACEMENT_3D('',#224,#225,#226);
#224 = CARTESIAN_POINT('',(762.35122825848,-1.039687725493E+03,
    245.32865755898));
#225 = DIRECTION('',(0.944340256791,0.328921539098,-5.665732160093E-03)
  );
#226 = DIRECTION('',(-0.328932469776,0.944352813228,-1.092920899576E-03)
  );
#227 = ADVANCED_FACE('',(#228),#239,.F.);
#228 = FACE_BOUND('',#229,.F.);
#229 = EDGE_LOOP('',(#230,#231,#237,#238));
#230 = ORIENTED_EDGE('',*,*,#216,.T.);
#231 = ORIENTED_EDGE('',*,*,#232,.T.);
#232 = EDGE_CURVE('',#209,#184,#233,.T.);
#233 = LINE('',#234,#235);
#234 = CARTESIAN_POINT('',(739.91051533779,-975.2785029563,
    244.25412860326));
#235 = VECTOR('',#236,1.);
#236 = DIRECTION('',(0.944340256791,0.328921539098,-5.665732160093E-03)
  );
#237 = ORIENTED_EDGE('',*,*,#183,.F.);
#238 = ORIENTED_EDGE('',*,*,#104,.F.);
#239 = PLANE('',#240);
#240 = AXIS2_PLACEMENT_3D('',#241,#242,#243);
#241 = CARTESIAN_POINT('',(739.91550630267,-975.2756072238,
    245.25411195562));
#242 = DIRECTION('',(0.328932469776,-0.944352813228,1.092920899576E-03)
  );
#243 = DIRECTION('',(0.944340256791,0.328921539098,-5.665732160093E-03)
  );
#244 = ADVANCED_FACE('',(#245),#251,.F.);
#245 = FACE_BOUND('',#246,.T.);
#246 = EDGE_LOOP('',(#247,#248,#249,#250));
#247 = ORIENTED_EDGE('',*,*,#160,.T.);
#248 = ORIENTED_EDGE('',*,*,#208,.T.);
#249 = ORIENTED_EDGE('',*,*,#232,.T.);
#250 = ORIENTED_EDGE('',*,*,#191,.T.);
#251 = PLANE('',#252);
#252 = AXIS2_PLACEMENT_3D('',#253,#254,#255);
#253 = CARTESIAN_POINT('',(808.64843221365,-987.4498498366,
    243.94629991402));
#254 = DIRECTION('',(4.990964879978E-03,2.895732475467E-03,
    0.999983352363));
#255 = DIRECTION('',(-0.328932469776,0.944352813228,-1.092920899576E-03)
  );
#256 = ( GEOMETRIC_REPRESENTATION_CONTEXT(3) 
GLOBAL_UNCERTAINTY_ASSIGNED_CONTEXT((#260)) GLOBAL_UNIT_ASSIGNED_CONTEXT
((#257,#258,#259)) REPRESENTATION_CONTEXT('Context #1',
  '3D Context with UNIT and UNCERTAINTY') );
#257 = ( LENGTH_UNIT() NAMED_UNIT(*) SI_UNIT(.MILLI.,.METRE.) );
#258 = ( NAMED_UNIT(*) PLANE_ANGLE_UNIT() SI_UNIT($,.RADIAN.) );
#259 = ( NAMED_UNIT(*) SI_UNIT($,.STERADIAN.) SOLID_ANGLE_UNIT() );
#260 = UNCERTAINTY_MEASURE_WITH_UNIT(LENGTH_MEASURE(1.E-07),#257,
  'distance_accuracy_value','confusion accuracy');
#261 = PRODUCT_RELATED_PRODUCT_CATEGORY('part',$,(#7));
ENDSEC;
END-ISO-10303-21;
